<svg xmlns="http://www.w3.org/2000/svg" xmlns:xlink="http://www.w3.org/1999/xlink" viewBox="0 0 283.82 73.81"><defs><style>.cls-1{fill:#544956;}.cls-2{fill:url(#linear-gradient);}.cls-3{fill:url(#linear-gradient-2);}</style><linearGradient id="linear-gradient" x1="19.48" y1="5.96" x2="45.49" y2="62.97" gradientUnits="userSpaceOnUse"><stop offset="0" stop-color="#f26659"/><stop offset="1" stop-color="#b52a53"/></linearGradient><linearGradient id="linear-gradient-2" x1="45.49" y1="62.2" x2="71.66" y2="18.02" gradientUnits="userSpaceOnUse"><stop offset="0" stop-color="#f26659"/><stop offset="1" stop-color="#ee1c4e"/></linearGradient></defs><title>Asset 1</title><g id="Layer_2" data-name="Layer 2"><g id="Layer_1-2" data-name="Layer 1"><path class="cls-1" d="M130.85,56.1H108.5V5.31h7.22V49.42h15.13Z"/><path class="cls-1" d="M137.85,73.81H130L142.4,50.32,128,24.2H136l10.13,19,9.41-19h7.81Z"/><path class="cls-1" d="M209,56.1H202v-18c0-.91,0-1.73-.09-2.44a14,14,0,0,0-.42-2.3,6.25,6.25,0,0,0-.86-2,4.26,4.26,0,0,0-1.5-1.28,5,5,0,0,0-2.36-.52,5.7,5.7,0,0,0-2.89.69,5.26,5.26,0,0,0-1.83,1.68,8.28,8.28,0,0,0-1,2.6,19.65,19.65,0,0,0-.47,2.89c-.06.84-.1,1.85-.1,3V56.1h-7V39.22q0-1.27,0-2.15c0-.57-.1-1.3-.21-2.18a8.26,8.26,0,0,0-.5-2.1,9.27,9.27,0,0,0-.92-1.68A3.27,3.27,0,0,0,180.46,30a5.13,5.13,0,0,0-2.12-.41,6.68,6.68,0,0,0-2.52.45,4,4,0,0,0-1.7,1.24A10,10,0,0,0,173,33.11a8.26,8.26,0,0,0-.65,2.31c-.14.93-.23,1.77-.29,2.5s-.08,1.56-.08,2.5V56.1H165V24.2H172v3a11.47,11.47,0,0,1,2.9-2.51,9.31,9.31,0,0,1,4.92-1.43,10.18,10.18,0,0,1,8.94,5,11.55,11.55,0,0,1,3.77-3.47,11.28,11.28,0,0,1,5.73-1.57c7.12,0,10.72,4.66,10.72,13.85Z"/><path class="cls-1" d="M222.35,73.81h-6.93V24.2h6.93v4.26a14.24,14.24,0,0,1,4-3.53,12.5,12.5,0,0,1,6.38-1.66,13.87,13.87,0,0,1,7.94,2.38A15.27,15.27,0,0,1,246,31.81,18.88,18.88,0,0,1,247.77,40a20.83,20.83,0,0,1-1,6.51,17.62,17.62,0,0,1-2.89,5.46A13.61,13.61,0,0,1,239,55.75a14.93,14.93,0,0,1-6.52,1.42,12.14,12.14,0,0,1-6.19-1.66,14.41,14.41,0,0,1-4-3.4Zm8.95-44.25a8.15,8.15,0,0,0-6.71,3.1A11.55,11.55,0,0,0,222,40.15a13.13,13.13,0,0,0,1.05,5.28,9.32,9.32,0,0,0,3.2,3.92,9.31,9.31,0,0,0,12-1.52,11.67,11.67,0,0,0,2.56-7.68,11.41,11.41,0,0,0-2.58-7.58A8.54,8.54,0,0,0,231.3,29.56Z"/><path class="cls-1" d="M266.81,57.17a16.56,16.56,0,0,1-12.09-4.89h0a16.4,16.4,0,0,1-4.92-12.06,16.4,16.4,0,0,1,4.92-12.06,17,17,0,0,1,29.1,12.06,16.75,16.75,0,0,1-17,16.95Zm0-27.22a9.63,9.63,0,0,0-7.12,3,10.34,10.34,0,0,0,0,14.48,9.86,9.86,0,0,0,14.25,0,10.34,10.34,0,0,0,0-14.48A9.63,9.63,0,0,0,266.81,29.95Z"/><path class="cls-2" d="M30.49,58.13.34,6S-1.91,0,5.16,0L24.59,0a6.3,6.3,0,0,1,5.9,3C32.66,6.5,62.67,58.67,62.67,58.67L36.83,61.85A6.89,6.89,0,0,1,30.49,58.13Z"/><path class="cls-3" d="M36.68,50.38,54.86,18.93s1.45-3,6-3H80.17s8,.16,5,5.52S63.87,58.56,63.87,58.56s-1.24,3.29-6.12,3.29H34.19s-4.37-.16-1.09-5.56S36.68,50.38,36.68,50.38Z"/></g></g></svg>